<svg width="100" height="100" xmlns="http://www.w3.org/2000/svg" xmlns:xlink="http://www.w3.org/1999/xlink" viewBox="-45 -35 340 340"><defs><path id="a" d="M.76575142.87472222H97.6727721V81.987625H.76575142z"/></defs><g fill="none" fill-rule="evenodd"><path d="M257 149.907457C257 80.9231513 206.904046 25 137.936651 25 68.9692556 25 15 84.7997603 15 153.781708 15 222.763655 68.9692556 269 137.936651 269 206.904046 269 257 218.889404 257 149.907457" fill="#EFEFEF"/><path d="M115.14005 131.967808s17.692343 28.559551 23.61504 30.080655c9.859326 2.540668 10.576584-10.918513 10.576584-10.918513s.471069-9.051275 30.41833-17.553916c28.706855-8.149444 31.84811 8.493223 33.438858 13.748802 1.590749 5.255579 3.612325 19.517695-1.197795 28.948068-3.787497 7.421858-7.877993 12.503193-19.320966 15.444151-11.442974 2.940958-25.539562 3.640289-36.400208-1.547006-10.863013-5.187294-28.240519-16.484905-37.512784-26.673476C91.7569945 133.827981 86 110.837178 86 110.837178L101.8246332 105l13.3154168 26.967808z" fill="#102337"/><path d="M195.141362 70.4503682c-8.919341-20.2485388-22.915591-22.4812584-70.004811-2.9153345-34.447597 14.3135814-40.8767786 29.5302054-38.7800502 43.3934503l15.2071699-5.674236 12.1327537 24.851449c-1.7221442-1.111619-3.7717551-2.147393-6.2053734-2.941407-11.8029313-3.849189-22.1051705.606769-21.3465789 7.165087 1.4229482 12.268107 11.1432864 16.299801 11.1432864 16.299801s9.480039 4.787785 16.2107725.452706c4.450247-2.870301 2.391213-6.800077 1.592571-9.044647l4.087442-2.773123c5.609338 8.606162 15.108224 22.367489 19.139125 23.415113 9.812217 2.555066 10.528403-10.992944 10.528403-10.992944s.466463-9.108643 30.270632-17.669771c26.423488-7.584611 31.081052 6.167236 32.883296 12.462462-2.723391-21.412302-7.995838-55.9104275-16.858638-76.0286058" fill="#FFF"/><path d="M202 72.2950021c-.507623 20.575586-11.973802 21.0963958-22.568091 20.6043865-24.213167-1.1256211-53.293409-5.7505078-57.880821-20.2779803-4.587411-14.5322726 20.307287 3.6072676 43.380652-3.9888749C188.002754 61.036391 202 72.2950021 202 72.2950021" fill="#102337"/><path d="M198.864579 61.5413534c2.556869.063968 8.837975 1.7650411 27.135421 2.1417411-46.441909 22.9929174-69.472634 34.1754594-120.9857447 39.6222105 24.3658737-11.0001152 49.2539917-21.6282685 73.6175027-32.6307526 6.744274-3.0443996 13.488547-6.0887993 20.232821-9.133199-7.911643-24.6276533-14.603928-43.0859551-36.115183-53.14313537-13.734309-6.42285409-32.561088 1.65368947-47.19101 5.60785527-21.9649695 5.9324333-36.2546058 18.6596823-44.9106232 36.5896564-9.910821 20.5289674-1.6541666 31.6641258 3.4193986 48.3858167C75.5299173 103.793356 77.2242565 113 77.2242565 113c5.8935593-.395653 22.8180466-6.11723 27.4071774-9.524114l94.2331451-41.9345326" fill="#57B4E5"/><path d="M198.861381 61c2.557171.0643295 8.839017 1.775017 27.138619 2.1538462C179.552619 86.2767189 156.51918 97.5224643 105 103c24.368745-11.0622873 49.259795-21.7505106 73.626177-32.8151804C185.371245 67.1232131 192.116313 64.0616065 198.861381 61" fill="#36A7D8"/><g transform="translate(78 2)"><mask id="b" fill="#fff"><use xlink:href="#a"/></mask><path d="M5.45742326 31.2709583l-1.59955814 1.7708334s-6.95725582 8.0443055 0 0c6.84216278-7.9120834 19.28160468-17.255 31.50260468-19.8923611 14.14-3.0552778 17.4236744 8.3040277 22.4243488 22.2416666 6.074093 16.9338889 13.2709302 46.5965278 13.2709302 46.5965278l26.6170233-11.8763889-3.0065116-9.9284722s-.1456279-.4297222-.4133954-1.2136111c-1.9824186-5.7634722-8.4675581-29.38875-14.8023721-40.7763889C72.2560047 5.25859722 68.4391442 1.57054167 59.1941209.89998611 51.5134233.34040278 30.639307 9.13081944 21.9908884 15.3004028 13.3424698 21.4699861 5.45742326 31.2709583 5.45742326 31.2709583" fill="#76C0E8" mask="url(#b)"/></g><path d="M77.924528 201.509842s-7.7250447-46.860516-8.7883826-52.716306c-1.0656853-5.858156 4.3167296-8.015926 9.4432861-8.593224 5.1265566-.577298 34.2826733-5.318713 37.4844235-5.198048 3.201751.118298 5.654705 1.130936 6.894092 9.657913 1.234693 8.522244 4.497474 45.585255 4.497474 45.585255L128 216.718334 80.919714 223l-2.995186-21.490158z" fill="#FFA400"/><path d="M90.5742188 244.5901333c-7.0828126-8.369641-17.86406255-23.5590769-17.86406255-23.5590769s6.04453125-9.9218461 12.87890625-5.5836923c6.8320313 4.3405128 9.6070312 6.1970256 13.9195312 2.946359 4.3101563-3.2530257 13.8585938-10.5705641 21.2507813-26.1350769 7.3921875-15.55979492 20.6367187-15.86882056 16.3242188-1.6088206-4.3125001 14.26-5.8523438 20.4593847-5.8523438 20.4593847s3.80625-5.4893334 6.6960938-5.888c3.0492187-.4269744 9.0117187-.6251282 5.315625 13.1725128l-3.6937501 13.795282s8.4820313-2.0782564 7.0265625 5.0529231c-1.4601562 7.1288205-7.4742187 15.2979487-13.9195312 22.2309744-4.725 5.0812307-7.6335937 7.9733333-10.0804688 11.1791795-3.8390624 5.0293333-20.90625-5.4681026-24.3234375-7.6737436-5.4187499-3.500718-.5953124-10.0185641-7.6781249-18.3882052" fill="#FFF"/><g fill="#F2C64F"><path d="M78.60331424 162.9751483c-1.50588548.2055934-2.9022158-.887512-3.101407-2.4243736l-1.4779987-11.35852623c-.1991912-1.53686153.86847363-2.96380183 2.37435911-3.16735965 1.50389356-.2055934 2.90022388.88547651 3.09941508 2.42437362l1.47799871 11.35649066c.20118312 1.5388971-.86847363 2.9638018-2.3723672 3.1693952"/></g></g></svg>
